<svg width="255" height="72" viewBox="0 0 255 72" fill="none" xmlns="http://www.w3.org/2000/svg">
<rect width="255" height="72" fill="#FF5722"/>
<path d="M63.5559 39.931C63.6879 39.931 63.8019 39.982 63.8979 40.084L64.8519 41.119C64.3239 41.773 63.6729 42.274 62.8989 42.622C62.1309 42.97 61.2069 43.144 60.1269 43.144C59.1609 43.144 58.2909 42.979 57.5169 42.649C56.7489 42.319 56.0919 41.86 55.5459 41.272C54.9999 40.684 54.5799 39.982 54.2859 39.166C53.9979 38.35 53.8539 37.459 53.8539 36.493C53.8539 35.515 54.0159 34.621 54.3399 33.811C54.6639 32.995 55.1199 32.293 55.7079 31.705C56.2959 31.117 56.9979 30.661 57.8139 30.337C58.6359 30.007 59.5419 29.842 60.5319 29.842C61.4979 29.842 62.3409 29.998 63.0609 30.31C63.7869 30.616 64.4079 31.024 64.9239 31.534L64.1139 32.659C64.0659 32.731 64.0029 32.794 63.9249 32.848C63.8529 32.902 63.7509 32.929 63.6189 32.929C63.4809 32.929 63.3399 32.875 63.1959 32.767C63.0519 32.659 62.8689 32.542 62.6469 32.416C62.4249 32.29 62.1429 32.173 61.8009 32.065C61.4649 31.957 61.0359 31.903 60.5139 31.903C59.9019 31.903 59.3379 32.011 58.8219 32.227C58.3119 32.437 57.8709 32.74 57.4989 33.136C57.1329 33.532 56.8449 34.015 56.6349 34.585C56.4309 35.149 56.3289 35.785 56.3289 36.493C56.3289 37.225 56.4309 37.876 56.6349 38.446C56.8449 39.016 57.1269 39.496 57.4809 39.886C57.8349 40.276 58.2519 40.576 58.7319 40.786C59.2119 40.99 59.7279 41.092 60.2799 41.092C60.6099 41.092 60.9069 41.074 61.1709 41.038C61.4409 41.002 61.6869 40.945 61.9089 40.867C62.1369 40.789 62.3499 40.69 62.5479 40.57C62.7519 40.444 62.9529 40.291 63.1509 40.111C63.2109 40.057 63.2739 40.015 63.3399 39.985C63.4059 39.949 63.4779 39.931 63.5559 39.931ZM66.5601 43V29.626H68.7831V34.765C69.1431 34.423 69.5391 34.147 69.9711 33.937C70.4031 33.727 70.9101 33.622 71.4921 33.622C71.9961 33.622 72.4431 33.709 72.8331 33.883C73.2231 34.051 73.5471 34.291 73.8051 34.603C74.0691 34.909 74.2671 35.278 74.3991 35.71C74.5371 36.136 74.6061 36.607 74.6061 37.123V43H72.3831V37.123C72.3831 36.559 72.2511 36.124 71.9871 35.818C71.7291 35.506 71.3391 35.35 70.8171 35.35C70.4331 35.35 70.0731 35.437 69.7371 35.611C69.4011 35.785 69.0831 36.022 68.7831 36.322V43H66.5601ZM80.6065 33.622C81.1885 33.622 81.7225 33.715 82.2085 33.901C82.7005 34.087 83.1235 34.36 83.4775 34.72C83.8315 35.074 84.1075 35.512 84.3055 36.034C84.5035 36.55 84.6025 37.141 84.6025 37.807C84.6025 37.975 84.5935 38.116 84.5755 38.23C84.5635 38.338 84.5365 38.425 84.4945 38.491C84.4585 38.551 84.4075 38.596 84.3415 38.626C84.2755 38.65 84.1915 38.662 84.0895 38.662H78.3835C78.4495 39.61 78.7045 40.306 79.1485 40.75C79.5925 41.194 80.1805 41.416 80.9125 41.416C81.2725 41.416 81.5815 41.374 81.8395 41.29C82.1035 41.206 82.3315 41.113 82.5235 41.011C82.7215 40.909 82.8925 40.816 83.0365 40.732C83.1865 40.648 83.3305 40.606 83.4685 40.606C83.5585 40.606 83.6365 40.624 83.7025 40.66C83.7685 40.696 83.8255 40.747 83.8735 40.813L84.5215 41.623C84.2755 41.911 83.9995 42.154 83.6935 42.352C83.3875 42.544 83.0665 42.7 82.7305 42.82C82.4005 42.934 82.0615 43.015 81.7135 43.063C81.3715 43.111 81.0385 43.135 80.7145 43.135C80.0725 43.135 79.4755 43.03 78.9235 42.82C78.3715 42.604 77.8915 42.289 77.4835 41.875C77.0755 41.455 76.7545 40.939 76.5205 40.327C76.2865 39.709 76.1695 38.995 76.1695 38.185C76.1695 37.555 76.2715 36.964 76.4755 36.412C76.6795 35.854 76.9705 35.371 77.3485 34.963C77.7325 34.549 78.1975 34.222 78.7435 33.982C79.2955 33.742 79.9165 33.622 80.6065 33.622ZM80.6515 35.215C80.0035 35.215 79.4965 35.398 79.1305 35.764C78.7645 36.13 78.5305 36.649 78.4285 37.321H82.6045C82.6045 37.033 82.5655 36.763 82.4875 36.511C82.4095 36.253 82.2895 36.028 82.1275 35.836C81.9655 35.644 81.7615 35.494 81.5155 35.386C81.2695 35.272 80.9815 35.215 80.6515 35.215ZM92.8948 35.719C92.8288 35.803 92.7628 35.869 92.6968 35.917C92.6368 35.965 92.5468 35.989 92.4268 35.989C92.3128 35.989 92.2018 35.956 92.0938 35.89C91.9858 35.818 91.8568 35.74 91.7068 35.656C91.5568 35.566 91.3768 35.488 91.1668 35.422C90.9628 35.35 90.7078 35.314 90.4018 35.314C90.0118 35.314 89.6698 35.386 89.3758 35.53C89.0818 35.668 88.8358 35.869 88.6378 36.133C88.4458 36.397 88.3018 36.718 88.2058 37.096C88.1098 37.468 88.0618 37.891 88.0618 38.365C88.0618 38.857 88.1128 39.295 88.2148 39.679C88.3228 40.063 88.4758 40.387 88.6738 40.651C88.8718 40.909 89.1118 41.107 89.3938 41.245C89.6758 41.377 89.9938 41.443 90.3478 41.443C90.7018 41.443 90.9868 41.401 91.2028 41.317C91.4248 41.227 91.6108 41.131 91.7608 41.029C91.9108 40.921 92.0398 40.825 92.1478 40.741C92.2618 40.651 92.3878 40.606 92.5258 40.606C92.7058 40.606 92.8408 40.675 92.9308 40.813L93.5698 41.623C93.3238 41.911 93.0568 42.154 92.7688 42.352C92.4808 42.544 92.1808 42.7 91.8688 42.82C91.5628 42.934 91.2448 43.015 90.9148 43.063C90.5848 43.111 90.2578 43.135 89.9338 43.135C89.3638 43.135 88.8268 43.03 88.3228 42.82C87.8188 42.604 87.3778 42.292 86.9998 41.884C86.6278 41.476 86.3308 40.978 86.1088 40.39C85.8928 39.796 85.7848 39.121 85.7848 38.365C85.7848 37.687 85.8808 37.06 86.0728 36.484C86.2708 35.902 86.5588 35.401 86.9368 34.981C87.3148 34.555 87.7828 34.222 88.3408 33.982C88.8988 33.742 89.5408 33.622 90.2668 33.622C90.9568 33.622 91.5598 33.733 92.0758 33.955C92.5978 34.177 93.0658 34.495 93.4798 34.909L92.8948 35.719ZM97.2339 29.626V37.285H97.6479C97.7979 37.285 97.9149 37.264 97.9989 37.222C98.0829 37.18 98.1729 37.102 98.2689 36.988L100.564 34.153C100.666 34.033 100.774 33.94 100.888 33.874C101.002 33.802 101.152 33.766 101.338 33.766H103.372L100.501 37.195C100.399 37.321 100.294 37.438 100.186 37.546C100.078 37.648 99.9609 37.738 99.8349 37.816C99.9609 37.906 100.072 38.011 100.168 38.131C100.264 38.251 100.36 38.38 100.456 38.518L103.534 43H101.527C101.353 43 101.206 42.97 101.086 42.91C100.966 42.85 100.858 42.748 100.762 42.604L98.4129 39.103C98.3229 38.965 98.2329 38.875 98.1429 38.833C98.0529 38.791 97.9179 38.77 97.7379 38.77H97.2339V43H95.0109V29.626H97.2339ZM115.632 43H114.633C114.423 43 114.258 42.97 114.138 42.91C114.018 42.844 113.928 42.715 113.868 42.523L113.67 41.866C113.436 42.076 113.205 42.262 112.977 42.424C112.755 42.58 112.524 42.712 112.284 42.82C112.044 42.928 111.789 43.009 111.519 43.063C111.249 43.117 110.949 43.144 110.619 43.144C110.229 43.144 109.869 43.093 109.539 42.991C109.209 42.883 108.924 42.724 108.684 42.514C108.45 42.304 108.267 42.043 108.135 41.731C108.003 41.419 107.937 41.056 107.937 40.642C107.937 40.294 108.027 39.952 108.207 39.616C108.393 39.274 108.699 38.968 109.125 38.698C109.551 38.422 110.118 38.194 110.826 38.014C111.534 37.834 112.413 37.732 113.463 37.708V37.168C113.463 36.55 113.331 36.094 113.067 35.8C112.809 35.5 112.431 35.35 111.933 35.35C111.573 35.35 111.273 35.392 111.033 35.476C110.793 35.56 110.583 35.656 110.403 35.764C110.229 35.866 110.067 35.959 109.917 36.043C109.767 36.127 109.602 36.169 109.422 36.169C109.272 36.169 109.143 36.13 109.035 36.052C108.927 35.974 108.84 35.878 108.774 35.764L108.369 35.053C109.431 34.081 110.712 33.595 112.212 33.595C112.752 33.595 113.232 33.685 113.652 33.865C114.078 34.039 114.438 34.285 114.732 34.603C115.026 34.915 115.248 35.29 115.398 35.728C115.554 36.166 115.632 36.646 115.632 37.168V43ZM111.312 41.614C111.54 41.614 111.75 41.593 111.942 41.551C112.134 41.509 112.314 41.446 112.482 41.362C112.656 41.278 112.821 41.176 112.977 41.056C113.139 40.93 113.301 40.783 113.463 40.615V39.058C112.815 39.088 112.272 39.145 111.834 39.229C111.402 39.307 111.054 39.409 110.79 39.535C110.526 39.661 110.337 39.808 110.223 39.976C110.115 40.144 110.061 40.327 110.061 40.525C110.061 40.915 110.175 41.194 110.403 41.362C110.637 41.53 110.94 41.614 111.312 41.614ZM122.127 43H120.111L116.439 33.766H118.284C118.446 33.766 118.581 33.805 118.689 33.883C118.803 33.961 118.881 34.06 118.923 34.18L120.705 39.112C120.807 39.4 120.891 39.682 120.957 39.958C121.029 40.234 121.092 40.51 121.146 40.786C121.2 40.51 121.26 40.234 121.326 39.958C121.398 39.682 121.488 39.4 121.596 39.112L123.423 34.18C123.465 34.06 123.54 33.961 123.648 33.883C123.756 33.805 123.885 33.766 124.035 33.766H125.79L122.127 43ZM134.335 43H133.336C133.126 43 132.961 42.97 132.841 42.91C132.721 42.844 132.631 42.715 132.571 42.523L132.373 41.866C132.139 42.076 131.908 42.262 131.68 42.424C131.458 42.58 131.227 42.712 130.987 42.82C130.747 42.928 130.492 43.009 130.222 43.063C129.952 43.117 129.652 43.144 129.322 43.144C128.932 43.144 128.572 43.093 128.242 42.991C127.912 42.883 127.627 42.724 127.387 42.514C127.153 42.304 126.97 42.043 126.838 41.731C126.706 41.419 126.64 41.056 126.64 40.642C126.64 40.294 126.73 39.952 126.91 39.616C127.096 39.274 127.402 38.968 127.828 38.698C128.254 38.422 128.821 38.194 129.529 38.014C130.237 37.834 131.116 37.732 132.166 37.708V37.168C132.166 36.55 132.034 36.094 131.77 35.8C131.512 35.5 131.134 35.35 130.636 35.35C130.276 35.35 129.976 35.392 129.736 35.476C129.496 35.56 129.286 35.656 129.106 35.764C128.932 35.866 128.77 35.959 128.62 36.043C128.47 36.127 128.305 36.169 128.125 36.169C127.975 36.169 127.846 36.13 127.738 36.052C127.63 35.974 127.543 35.878 127.477 35.764L127.072 35.053C128.134 34.081 129.415 33.595 130.915 33.595C131.455 33.595 131.935 33.685 132.355 33.865C132.781 34.039 133.141 34.285 133.435 34.603C133.729 34.915 133.951 35.29 134.101 35.728C134.257 36.166 134.335 36.646 134.335 37.168V43ZM130.015 41.614C130.243 41.614 130.453 41.593 130.645 41.551C130.837 41.509 131.017 41.446 131.185 41.362C131.359 41.278 131.524 41.176 131.68 41.056C131.842 40.93 132.004 40.783 132.166 40.615V39.058C131.518 39.088 130.975 39.145 130.537 39.229C130.105 39.307 129.757 39.409 129.493 39.535C129.229 39.661 129.04 39.808 128.926 39.976C128.818 40.144 128.764 40.327 128.764 40.525C128.764 40.915 128.878 41.194 129.106 41.362C129.34 41.53 129.643 41.614 130.015 41.614ZM138.888 33.766V43H136.665V33.766H138.888ZM139.221 31.075C139.221 31.267 139.182 31.447 139.104 31.615C139.026 31.783 138.921 31.93 138.789 32.056C138.663 32.182 138.513 32.284 138.339 32.362C138.165 32.434 137.979 32.47 137.781 32.47C137.589 32.47 137.406 32.434 137.232 32.362C137.064 32.284 136.917 32.182 136.791 32.056C136.665 31.93 136.563 31.783 136.485 31.615C136.413 31.447 136.377 31.267 136.377 31.075C136.377 30.877 136.413 30.691 136.485 30.517C136.563 30.343 136.665 30.193 136.791 30.067C136.917 29.941 137.064 29.842 137.232 29.77C137.406 29.692 137.589 29.653 137.781 29.653C137.979 29.653 138.165 29.692 138.339 29.77C138.513 29.842 138.663 29.941 138.789 30.067C138.921 30.193 139.026 30.343 139.104 30.517C139.182 30.691 139.221 30.877 139.221 31.075ZM141.435 43V29.626H143.658V34.9C144.024 34.51 144.438 34.201 144.9 33.973C145.362 33.739 145.902 33.622 146.52 33.622C147.024 33.622 147.483 33.727 147.897 33.937C148.317 34.141 148.677 34.441 148.977 34.837C149.283 35.233 149.517 35.722 149.679 36.304C149.847 36.886 149.931 37.555 149.931 38.311C149.931 39.001 149.838 39.64 149.652 40.228C149.466 40.816 149.199 41.326 148.851 41.758C148.509 42.19 148.092 42.529 147.6 42.775C147.114 43.015 146.568 43.135 145.962 43.135C145.68 43.135 145.422 43.105 145.188 43.045C144.954 42.991 144.741 42.913 144.549 42.811C144.357 42.709 144.177 42.586 144.009 42.442C143.847 42.292 143.691 42.127 143.541 41.947L143.442 42.568C143.406 42.724 143.343 42.835 143.253 42.901C143.169 42.967 143.052 43 142.902 43H141.435ZM145.755 35.35C145.293 35.35 144.897 35.449 144.567 35.647C144.243 35.839 143.94 36.112 143.658 36.466V40.606C143.91 40.918 144.183 41.137 144.477 41.263C144.777 41.383 145.101 41.443 145.449 41.443C145.785 41.443 146.088 41.38 146.358 41.254C146.628 41.128 146.856 40.936 147.042 40.678C147.234 40.42 147.381 40.096 147.483 39.706C147.585 39.31 147.636 38.845 147.636 38.311C147.636 37.771 147.591 37.315 147.501 36.943C147.417 36.565 147.294 36.259 147.132 36.025C146.97 35.791 146.772 35.62 146.538 35.512C146.31 35.404 146.049 35.35 145.755 35.35ZM154.04 33.766V43H151.817V33.766H154.04ZM154.373 31.075C154.373 31.267 154.334 31.447 154.256 31.615C154.178 31.783 154.073 31.93 153.941 32.056C153.815 32.182 153.665 32.284 153.491 32.362C153.317 32.434 153.131 32.47 152.933 32.47C152.741 32.47 152.558 32.434 152.384 32.362C152.216 32.284 152.069 32.182 151.943 32.056C151.817 31.93 151.715 31.783 151.637 31.615C151.565 31.447 151.529 31.267 151.529 31.075C151.529 30.877 151.565 30.691 151.637 30.517C151.715 30.343 151.817 30.193 151.943 30.067C152.069 29.941 152.216 29.842 152.384 29.77C152.558 29.692 152.741 29.653 152.933 29.653C153.131 29.653 153.317 29.692 153.491 29.77C153.665 29.842 153.815 29.941 153.941 30.067C154.073 30.193 154.178 30.343 154.256 30.517C154.334 30.691 154.373 30.877 154.373 31.075ZM158.927 29.626V43H156.704V29.626H158.927ZM163.814 33.766V43H161.591V33.766H163.814ZM164.147 31.075C164.147 31.267 164.108 31.447 164.03 31.615C163.952 31.783 163.847 31.93 163.715 32.056C163.589 32.182 163.439 32.284 163.265 32.362C163.091 32.434 162.905 32.47 162.707 32.47C162.515 32.47 162.332 32.434 162.158 32.362C161.99 32.284 161.843 32.182 161.717 32.056C161.591 31.93 161.489 31.783 161.411 31.615C161.339 31.447 161.303 31.267 161.303 31.075C161.303 30.877 161.339 30.691 161.411 30.517C161.489 30.343 161.591 30.193 161.717 30.067C161.843 29.941 161.99 29.842 162.158 29.77C162.332 29.692 162.515 29.653 162.707 29.653C162.905 29.653 163.091 29.692 163.265 29.77C163.439 29.842 163.589 29.941 163.715 30.067C163.847 30.193 163.952 30.343 164.03 30.517C164.108 30.691 164.147 30.877 164.147 31.075ZM169.367 43.144C168.569 43.144 167.954 42.919 167.522 42.469C167.09 42.013 166.874 41.386 166.874 40.588V35.431H165.938C165.818 35.431 165.713 35.392 165.623 35.314C165.539 35.236 165.497 35.119 165.497 34.963V34.081L166.982 33.838L167.45 31.318C167.474 31.198 167.528 31.105 167.612 31.039C167.702 30.973 167.813 30.94 167.945 30.94H169.097V33.847H171.527V35.431H169.097V40.435C169.097 40.723 169.169 40.948 169.313 41.11C169.457 41.272 169.649 41.353 169.889 41.353C170.027 41.353 170.141 41.338 170.231 41.308C170.327 41.272 170.408 41.236 170.474 41.2C170.546 41.164 170.609 41.131 170.663 41.101C170.717 41.065 170.771 41.047 170.825 41.047C170.891 41.047 170.945 41.065 170.987 41.101C171.029 41.131 171.074 41.179 171.122 41.245L171.788 42.325C171.464 42.595 171.092 42.799 170.672 42.937C170.252 43.075 169.817 43.144 169.367 43.144ZM176.57 45.538C176.504 45.694 176.417 45.811 176.309 45.889C176.207 45.973 176.048 46.015 175.832 46.015H174.176L175.904 42.316L172.169 33.766H174.113C174.293 33.766 174.431 33.808 174.527 33.892C174.623 33.976 174.695 34.072 174.743 34.18L176.714 38.968C176.78 39.124 176.837 39.286 176.885 39.454C176.933 39.622 176.975 39.79 177.011 39.958C177.059 39.784 177.11 39.616 177.164 39.454C177.224 39.292 177.287 39.127 177.353 38.959L179.207 34.18C179.255 34.06 179.333 33.961 179.441 33.883C179.555 33.805 179.681 33.766 179.819 33.766H181.601L176.57 45.538Z" fill="white"/>
<path d="M223.533 35.9934C223.533 36.2867 223.427 36.5534 223.213 36.7667L216.28 43.4334C215.853 43.8334 215.187 43.8334 214.76 43.4067C214.36 42.98 214.36 42.3133 214.787 41.8867L220.92 35.9934L214.787 30.1C214.36 29.7 214.36 29.0067 214.76 28.58C215.16 28.1533 215.853 28.1534 216.28 28.5534L223.213 35.22C223.427 35.4333 223.533 35.7 223.533 35.9934Z" fill="white"/>
</svg>
